<?xml version="1.0" standalone="no"?>
<!DOCTYPE svg PUBLIC "-//W3C//DTD SVG 20010904//EN"
 "http://www.w3.org/TR/2001/REC-SVG-20010904/DTD/svg10.dtd">
<svg version="1.0" xmlns="http://www.w3.org/2000/svg"
 width="128.000000pt" height="128.000000pt" viewBox="0 0 128.000000 128.000000"
 preserveAspectRatio="xMidYMid meet">

<g transform="translate(0.000000,128.000000) scale(0.100000,-0.100000)"
fill="#000000" stroke="none">
<path d="M450 972 l-185 -107 -3 -222 -2 -223 37 -23 c21 -13 107 -63 191
-111 l154 -87 161 92 c89 51 174 101 190 111 l27 19 0 220 0 219 -37 23 c-55
35 -339 197 -344 197 -2 -1 -87 -49 -189 -108z m335 -24 c77 -45 152 -90 168
-100 l27 -19 0 -189 0 -189 -27 -19 c-16 -10 -92 -56 -170 -101 l-142 -82
-161 93 c-159 92 -161 93 -139 110 11 10 27 18 34 18 7 0 69 -36 139 -79 l127
-79 139 81 140 82 0 165 0 165 -137 79 -138 79 -67 -37 c-37 -20 -70 -36 -73
-36 -3 0 -5 13 -5 30 0 25 8 34 68 69 37 22 69 40 72 41 2 0 67 -37 145 -82z
m-323 -233 l3 -189 80 -48 c44 -26 87 -47 95 -48 8 0 51 22 95 48 l80 48 3
110 3 111 -85 51 c-47 29 -89 52 -95 52 -5 0 -37 -16 -70 -35 -32 -19 -62 -35
-65 -35 -3 0 -6 11 -6 25 0 19 14 32 70 65 38 23 73 40 78 38 5 -1 59 -32 120
-68 l112 -64 0 -137 0 -136 -115 -67 c-63 -36 -119 -66 -124 -66 -11 0 -196
114 -223 138 -16 13 -18 36 -18 197 0 178 1 183 23 198 12 8 25 12 29 8 4 -3
9 -92 10 -196z m-102 -23 c0 -174 -4 -192 -42 -192 -17 0 -18 13 -18 164 0
159 1 165 22 180 12 9 26 16 30 16 5 0 8 -76 8 -168z m352 67 l69 -40 -3 -81
-3 -81 -60 -38 c-33 -21 -67 -38 -75 -38 -8 0 -42 17 -75 38 l-60 38 -3 80 -3
80 68 41 c37 23 70 41 72 42 3 0 36 -18 73 -41z"/>
</g>
</svg>