<?xml version="1.0" encoding="UTF-8" standalone="no"?>
<!DOCTYPE svg PUBLIC "-//W3C//DTD SVG 1.1//EN" "http://www.w3.org/Graphics/SVG/1.1/DTD/svg11.dtd">
<svg xmlns="http://www.w3.org/2000/svg" version="1.1" viewBox="0.00 0.00 90.00 90.00">
<g stroke-width="2.00" fill="none" stroke-linecap="butt">
<path stroke="#808080" vector-effect="non-scaling-stroke" d="
  M 45.66 14.24
  A 1.21 1.21 0.0 0 0 44.44 14.24
  L 18.85 29.11
  A 1.21 1.21 0.0 0 0 18.25 30.16
  L 18.25 59.89
  A 1.21 1.21 0.0 0 0 18.85 60.94
  L 44.42 75.74
  A 1.21 1.21 0.0 0 0 45.64 75.74
  L 71.18 60.98
  A 1.21 1.21 0.0 0 0 71.78 59.93
  L 71.78 30.13
  A 1.21 1.21 0.0 0 0 71.18 29.08
  L 45.66 14.24"
/>
<path stroke="#808080" vector-effect="non-scaling-stroke" d="
  M 64.83 56.40
  A 0.35 0.35 0.0 0 1 64.66 56.70
  L 45.21 67.99
  A 0.35 0.35 0.0 0 1 44.85 67.99
  L 26.85 56.67
  A 0.35 0.35 0.0 0 0 26.50 56.66
  L 22.57 58.75
  A 0.35 0.35 0.0 0 0 22.56 59.37
  L 44.88 72.37
  A 0.35 0.35 0.0 0 0 45.24 72.37
  L 68.57 58.84
  A 0.35 0.35 0.0 0 0 68.74 58.54
  L 68.72 31.49
  A 0.35 0.35 0.0 0 0 68.55 31.19
  L 45.17 17.60
  A 0.35 0.35 0.0 0 0 44.81 17.60
  L 35.53 23.06
  A 0.35 0.35 0.0 0 0 35.36 23.36
  L 35.29 27.28
  A 0.35 0.35 0.0 0 0 35.82 27.59
  L 44.84 22.25
  A 0.35 0.35 0.0 0 1 45.20 22.25
  L 64.65 33.42
  A 0.35 0.35 0.0 0 1 64.83 33.72
  L 64.83 56.40"
/>
<path stroke="#808080" vector-effect="non-scaling-stroke" d="
  M 45.23 60.23
  A 0.37 0.37 0.0 0 1 44.85 60.23
  L 32.43 52.76
  A 0.37 0.37 0.0 0 1 32.25 52.44
  L 32.24 25.71
  A 0.37 0.37 0.0 0 0 31.68 25.40
  L 28.48 27.31
  A 0.37 0.37 0.0 0 0 28.30 27.63
  L 28.31 53.65
  A 0.37 0.37 0.0 0 0 28.48 53.96
  L 44.86 64.30
  A 0.37 0.37 0.0 0 0 45.24 64.31
  L 61.56 54.88
  A 0.37 0.37 0.0 0 0 61.74 54.56
  L 61.74 35.68
  A 0.37 0.37 0.0 0 0 61.56 35.36
  L 45.21 25.87
  A 0.37 0.37 0.0 0 0 44.83 25.87
  L 35.52 31.37
  A 0.37 0.37 0.0 0 0 35.34 31.69
  L 35.29 35.02
  A 0.37 0.37 0.0 0 0 35.85 35.35
  L 44.84 29.94
  A 0.37 0.37 0.0 0 1 45.22 29.94
  L 57.63 37.44
  A 0.37 0.37 0.0 0 1 57.81 37.76
  L 57.80 52.46
  A 0.37 0.37 0.0 0 1 57.62 52.78
  L 45.23 60.23"
/>
<path stroke="#808080" vector-effect="non-scaling-stroke" d="
  M 21.46 55.29
  A 0.32 0.32 0.0 0 0 21.95 55.56
  L 25.11 53.57
  A 0.32 0.32 0.0 0 0 25.26 53.30
  L 25.26 29.58
  A 0.32 0.32 0.0 0 0 24.78 29.30
  L 21.62 31.20
  A 0.32 0.32 0.0 0 0 21.46 31.47
  L 21.46 55.29"
/>
<path stroke="#808080" vector-effect="non-scaling-stroke" d="
  M 35.33 50.31
  A 0.87 0.87 0.0 0 0 35.76 51.06
  L 44.60 56.31
  A 0.87 0.87 0.0 0 0 45.48 56.31
  L 54.31 51.10
  A 0.87 0.87 0.0 0 0 54.74 50.35
  L 54.76 39.89
  A 0.87 0.87 0.0 0 0 54.33 39.14
  L 45.47 33.88
  A 0.87 0.87 0.0 0 0 44.59 33.88
  L 35.75 39.15
  A 0.87 0.87 0.0 0 0 35.33 39.89
  L 35.33 50.31"
/>
</g>
<path fill="#ffffff" d="
  M 0.00 0.00
  L 90.00 0.00
  L 90.00 90.00
  L 0.00 90.00
  L 0.00 0.00
  Z
  M 45.66 14.24
  A 1.21 1.21 0.0 0 0 44.44 14.24
  L 18.85 29.11
  A 1.21 1.21 0.0 0 0 18.25 30.16
  L 18.25 59.89
  A 1.21 1.21 0.0 0 0 18.85 60.94
  L 44.42 75.74
  A 1.21 1.21 0.0 0 0 45.64 75.74
  L 71.18 60.98
  A 1.21 1.21 0.0 0 0 71.78 59.93
  L 71.78 30.13
  A 1.21 1.21 0.0 0 0 71.18 29.08
  L 45.66 14.24
  Z"
/>
<path fill="#000000" d="
  M 45.66 14.24
  L 71.18 29.08
  A 1.21 1.21 0.0 0 1 71.78 30.13
  L 71.78 59.93
  A 1.21 1.21 0.0 0 1 71.18 60.98
  L 45.64 75.74
  A 1.21 1.21 0.0 0 1 44.42 75.74
  L 18.85 60.94
  A 1.21 1.21 0.0 0 1 18.25 59.89
  L 18.25 30.16
  A 1.21 1.21 0.0 0 1 18.85 29.11
  L 44.44 14.24
  A 1.21 1.21 0.0 0 1 45.66 14.24
  Z
  M 64.83 56.40
  A 0.35 0.35 0.0 0 1 64.66 56.70
  L 45.21 67.99
  A 0.35 0.35 0.0 0 1 44.85 67.99
  L 26.85 56.67
  A 0.35 0.35 0.0 0 0 26.50 56.66
  L 22.57 58.75
  A 0.35 0.35 0.0 0 0 22.56 59.37
  L 44.88 72.37
  A 0.35 0.35 0.0 0 0 45.24 72.37
  L 68.57 58.84
  A 0.35 0.35 0.0 0 0 68.74 58.54
  L 68.72 31.49
  A 0.35 0.35 0.0 0 0 68.55 31.19
  L 45.17 17.60
  A 0.35 0.35 0.0 0 0 44.81 17.60
  L 35.53 23.06
  A 0.35 0.35 0.0 0 0 35.36 23.36
  L 35.29 27.28
  A 0.35 0.35 0.0 0 0 35.82 27.59
  L 44.84 22.25
  A 0.35 0.35 0.0 0 1 45.20 22.25
  L 64.65 33.42
  A 0.35 0.35 0.0 0 1 64.83 33.72
  L 64.83 56.40
  Z
  M 45.23 60.23
  A 0.37 0.37 0.0 0 1 44.85 60.23
  L 32.43 52.76
  A 0.37 0.37 0.0 0 1 32.25 52.44
  L 32.24 25.71
  A 0.37 0.37 0.0 0 0 31.68 25.40
  L 28.48 27.31
  A 0.37 0.37 0.0 0 0 28.30 27.63
  L 28.31 53.65
  A 0.37 0.37 0.0 0 0 28.48 53.96
  L 44.86 64.30
  A 0.37 0.37 0.0 0 0 45.24 64.31
  L 61.56 54.88
  A 0.37 0.37 0.0 0 0 61.74 54.56
  L 61.74 35.68
  A 0.37 0.37 0.0 0 0 61.56 35.36
  L 45.21 25.87
  A 0.37 0.37 0.0 0 0 44.83 25.87
  L 35.52 31.37
  A 0.37 0.37 0.0 0 0 35.34 31.69
  L 35.29 35.02
  A 0.37 0.37 0.0 0 0 35.85 35.35
  L 44.84 29.94
  A 0.37 0.37 0.0 0 1 45.22 29.94
  L 57.63 37.44
  A 0.37 0.37 0.0 0 1 57.81 37.76
  L 57.80 52.46
  A 0.37 0.37 0.0 0 1 57.62 52.78
  L 45.23 60.23
  Z
  M 21.46 55.29
  A 0.32 0.32 0.0 0 0 21.95 55.56
  L 25.11 53.57
  A 0.32 0.32 0.0 0 0 25.26 53.30
  L 25.26 29.58
  A 0.32 0.32 0.0 0 0 24.78 29.30
  L 21.62 31.20
  A 0.32 0.32 0.0 0 0 21.46 31.47
  L 21.46 55.29
  Z
  M 35.33 50.31
  A 0.87 0.87 0.0 0 0 35.76 51.06
  L 44.60 56.31
  A 0.87 0.87 0.0 0 0 45.48 56.31
  L 54.31 51.10
  A 0.87 0.87 0.0 0 0 54.74 50.35
  L 54.76 39.89
  A 0.87 0.87 0.0 0 0 54.33 39.14
  L 45.47 33.88
  A 0.87 0.87 0.0 0 0 44.59 33.88
  L 35.75 39.15
  A 0.87 0.87 0.0 0 0 35.33 39.89
  L 35.33 50.31
  Z"
/>
<path fill="#ffffff" d="
  M 64.83 56.40
  L 64.83 33.72
  A 0.35 0.35 0.0 0 0 64.65 33.42
  L 45.20 22.25
  A 0.35 0.35 0.0 0 0 44.84 22.25
  L 35.82 27.59
  A 0.35 0.35 0.0 0 1 35.29 27.28
  L 35.36 23.36
  A 0.35 0.35 0.0 0 1 35.53 23.06
  L 44.81 17.60
  A 0.35 0.35 0.0 0 1 45.17 17.60
  L 68.55 31.19
  A 0.35 0.35 0.0 0 1 68.72 31.49
  L 68.74 58.54
  A 0.35 0.35 0.0 0 1 68.57 58.84
  L 45.24 72.37
  A 0.35 0.35 0.0 0 1 44.88 72.37
  L 22.56 59.37
  A 0.35 0.35 0.0 0 1 22.57 58.75
  L 26.50 56.66
  A 0.35 0.35 0.0 0 1 26.85 56.67
  L 44.85 67.99
  A 0.35 0.35 0.0 0 0 45.21 67.99
  L 64.66 56.70
  A 0.35 0.35 0.0 0 0 64.83 56.40
  Z"
/>
<path fill="#ffffff" d="
  M 45.23 60.23
  L 57.62 52.78
  A 0.37 0.37 0.0 0 0 57.80 52.46
  L 57.81 37.76
  A 0.37 0.37 0.0 0 0 57.63 37.44
  L 45.22 29.94
  A 0.37 0.37 0.0 0 0 44.84 29.94
  L 35.85 35.35
  A 0.37 0.37 0.0 0 1 35.29 35.02
  L 35.34 31.69
  A 0.37 0.37 0.0 0 1 35.52 31.37
  L 44.83 25.87
  A 0.37 0.37 0.0 0 1 45.21 25.87
  L 61.56 35.36
  A 0.37 0.37 0.0 0 1 61.74 35.68
  L 61.74 54.56
  A 0.37 0.37 0.0 0 1 61.56 54.88
  L 45.24 64.31
  A 0.37 0.37 0.0 0 1 44.86 64.30
  L 28.48 53.96
  A 0.37 0.37 0.0 0 1 28.31 53.65
  L 28.30 27.63
  A 0.37 0.37 0.0 0 1 28.48 27.31
  L 31.68 25.40
  A 0.37 0.37 0.0 0 1 32.24 25.71
  L 32.25 52.44
  A 0.37 0.37 0.0 0 0 32.43 52.76
  L 44.85 60.23
  A 0.37 0.37 0.0 0 0 45.23 60.23
  Z"
/>
<path fill="#ffffff" d="
  M 21.46 55.29
  L 21.46 31.47
  A 0.32 0.32 0.0 0 1 21.62 31.20
  L 24.78 29.30
  A 0.32 0.32 0.0 0 1 25.26 29.58
  L 25.26 53.30
  A 0.32 0.32 0.0 0 1 25.11 53.57
  L 21.95 55.56
  A 0.32 0.32 0.0 0 1 21.46 55.29
  Z"
/>
<path fill="#ffffff" d="
  M 35.33 50.31
  L 35.33 39.89
  A 0.87 0.87 0.0 0 1 35.75 39.15
  L 44.59 33.88
  A 0.87 0.87 0.0 0 1 45.47 33.88
  L 54.33 39.14
  A 0.87 0.87 0.0 0 1 54.76 39.89
  L 54.74 50.35
  A 0.87 0.87 0.0 0 1 54.31 51.10
  L 45.48 56.31
  A 0.87 0.87 0.0 0 1 44.60 56.31
  L 35.76 51.06
  A 0.87 0.87 0.0 0 1 35.33 50.31
  Z"
/>
</svg>
